<svg width="305" height="90" viewBox="0 0 305 90" fill="none" xmlns="http://www.w3.org/2000/svg">
<path d="M295.695 14.0042V8.70219H290.682V5.302H295.695V0H299.384V5.302H304.398V8.70219H299.384V14.0042H295.695Z" fill="#122773"/>
<path d="M75.5977 31.9479H86.2855V51.2986L84.9355 58.3863C84.9355 53.2862 85.423 48.7485 86.398 44.7734C87.3731 40.7982 88.8731 37.6856 90.8982 35.4355C92.9983 33.1104 95.6234 31.9479 98.7735 31.9479H109.124V41.6232H99.8985C96.7484 41.6232 94.1608 42.4108 92.1357 43.9858C90.1107 45.5609 88.6106 47.961 87.6356 51.1861C86.7356 54.3362 86.2855 58.3863 86.2855 63.3365V88.1999H75.5977V31.9479Z" fill="#122773"/>
<path d="M129.017 90C125.567 90 122.38 89.2874 119.454 87.8624C116.604 86.4373 114.317 84.4123 112.592 81.7872C110.867 79.0871 110.004 75.9745 110.004 72.4493C110.004 67.7992 111.317 64.1615 113.942 61.5365C116.642 58.8364 119.979 56.9613 123.955 55.9113C128.005 54.8612 132.505 54.1862 137.455 53.8862C141.655 53.7362 144.505 52.9862 146.005 51.6361C147.505 50.2111 147.993 48.4485 147.468 46.3484C147.018 44.3233 145.78 42.7483 143.755 41.6232C141.805 40.4232 139.105 39.8232 135.655 39.8232C131.38 39.8232 128.005 40.7607 125.53 42.6358C123.13 44.4358 121.929 47.1359 121.929 50.7361L111.467 49.611C111.467 45.9359 112.479 42.6358 114.504 39.7107C116.529 36.7106 119.379 34.3855 123.055 32.7354C126.805 31.0104 131.005 30.1478 135.655 30.1478C142.705 30.1478 148.255 31.7604 152.306 34.9855C156.431 38.2106 158.493 43.6108 158.493 51.1861V88.1999H147.805V72.4493L148.93 67.9492C148.93 71.9993 148.143 75.7119 146.568 79.0871C145.068 82.4622 142.818 85.1248 139.818 87.0749C136.818 89.0249 133.217 90 129.017 90ZM131.267 80.3246C134.267 80.3246 137.005 79.6121 139.48 78.187C142.03 76.762 144.055 74.6244 145.555 71.7743C147.055 68.8492 147.805 65.2116 147.805 60.8614V52.7611L149.268 51.2986C149.268 54.2987 148.63 56.6238 147.355 58.2738C146.155 59.8489 144.618 60.9364 142.743 61.5365C140.868 62.1365 138.618 62.5865 135.992 62.8865H135.317C131.042 63.1115 127.592 63.899 124.967 65.2491C122.342 66.5241 121.029 68.8117 121.029 72.1118C121.029 73.7619 121.404 75.1869 122.154 76.387C122.98 77.587 124.18 78.562 125.755 79.3121C127.33 79.9871 129.167 80.3246 131.267 80.3246Z" fill="#122773"/>
<path d="M165.296 31.9479H175.984V51.2986L174.634 58.3863C174.634 53.2862 175.121 48.7485 176.096 44.7734C177.071 40.7982 178.571 37.6856 180.597 35.4355C182.697 33.1104 185.322 31.9479 188.472 31.9479H198.822V41.6232H189.597C186.447 41.6232 183.859 42.4108 181.834 43.9858C179.809 45.5609 178.309 47.961 177.334 51.1861C176.434 54.3362 175.984 58.3863 175.984 63.3365V88.1999H165.296V31.9479Z" fill="#122773"/>
<path d="M218.716 90C215.265 90 212.078 89.2874 209.153 87.8624C206.303 86.4373 204.015 84.4123 202.29 81.7872C200.565 79.0871 199.702 75.9745 199.702 72.4493C199.702 67.7992 201.015 64.1615 203.64 61.5365C206.34 58.8364 209.678 56.9613 213.653 55.9113C217.703 54.8612 222.203 54.1862 227.153 53.8862C231.353 53.7362 234.204 52.9862 235.704 51.6361C237.204 50.2111 237.691 48.4485 237.166 46.3484C236.716 44.3233 235.479 42.7483 233.454 41.6232C231.503 40.4232 228.803 39.8232 225.353 39.8232C221.078 39.8232 217.703 40.7607 215.228 42.6358C212.828 44.4358 211.628 47.1359 211.628 50.7361L201.165 49.611C201.165 45.9359 202.177 42.6358 204.203 39.7107C206.228 36.7106 209.078 34.3855 212.753 32.7354C216.503 31.0104 220.703 30.1478 225.353 30.1478C232.404 30.1478 237.954 31.7604 242.004 34.9855C246.129 38.2106 248.192 43.6108 248.192 51.1861V88.1999H237.504V72.4493L238.629 67.9492C238.629 71.9993 237.841 75.7119 236.266 79.0871C234.766 82.4622 232.516 85.1248 229.516 87.0749C226.516 89.0249 222.916 90 218.716 90ZM220.966 80.3246C223.966 80.3246 226.703 79.6121 229.178 78.187C231.729 76.762 233.754 74.6244 235.254 71.7743C236.754 68.8492 237.504 65.2116 237.504 60.8614V52.7611L238.966 51.2986C238.966 54.2987 238.329 56.6238 237.054 58.2738C235.854 59.8489 234.316 60.9364 232.441 61.5365C230.566 62.1365 228.316 62.5865 225.691 62.8865H225.016C220.741 63.1115 217.29 63.899 214.665 65.2491C212.04 66.5241 210.728 68.8117 210.728 72.1118C210.728 73.7619 211.103 75.1869 211.853 76.387C212.678 77.587 213.878 78.562 215.453 79.3121C217.028 79.9871 218.866 80.3246 220.966 80.3246Z" fill="#122773"/>
<path d="M279.976 88.1999C274.5 88.1999 270.3 86.8123 267.375 84.0373C264.525 81.1871 263.1 77.062 263.1 71.6618V13.9473H273.788V71.7743C273.788 74.0244 274.35 75.7119 275.475 76.837C276.601 77.962 278.288 78.5246 280.538 78.5246H290.663V88.1999H279.976ZM250.95 31.9479H290.663V41.6232H250.95V31.9479Z" fill="#122773"/>
<path d="M26.776 9.44531H34.82H42.864L69.64 88.1981H58.5021L32.5137 11.9204H37.2388L11.1379 88.1981H0L26.776 9.44531Z" fill="#122773"/>
<path d="M54.4195 65.0371V53.6955L44.6651 47.293L34.9107 53.6955L25.1563 47.293L15.4019 53.6955V65.0371L25.1563 58.6345L34.9107 65.0371L44.6651 58.6345L54.4195 65.0371Z" fill="#122773"/>
</svg>
