<svg width="397" height="90" viewBox="0 0 397 90" fill="none" xmlns="http://www.w3.org/2000/svg">
<path fill-rule="evenodd" clip-rule="evenodd" d="M14.5946 0H24.8808L0 24.8808V14.5946C0 6.53422 6.53422 0 14.5946 0ZM0 61.1968V38.2786L25.2643 13.0144L63.159 50.9091L75.0011 39.067L90 54.0659V75.4054C90 75.9134 89.9741 76.4152 89.9234 76.9098L74.9999 61.9863L63.1578 73.8284L25.2631 35.9337L0 61.1968ZM0 74.5946V75.4054C0 83.4658 6.53422 90 14.5946 90H75.4054C79.3379 90 82.9071 88.4447 85.5315 85.9157L74.9999 75.3841L63.1578 87.2263L25.2631 49.3315L0 74.5946ZM90 14.5946V40.6681L75.0011 25.6692L63.159 37.5113L25.6477 0H75.4054C83.4658 0 90 6.53422 90 14.5946Z" fill="#FF9B10"/>
<path d="M138.385 71.5648C133.228 71.5648 128.655 70.4702 124.666 68.281C120.725 66.0919 117.66 63.0027 115.471 59.0135C113.282 54.9756 112.188 50.3054 112.188 45.0027C112.188 39.7486 113.306 35.127 115.544 31.1378C117.831 27.1 120.969 23.9865 124.958 21.7973C128.996 19.5594 133.569 18.4405 138.677 18.4405C143.59 18.4405 147.993 19.4378 151.885 21.4324L150.863 30.3351C148.771 29.4108 146.752 28.7054 144.806 28.2189C142.909 27.6837 140.842 27.4162 138.604 27.4162C133.398 27.4162 129.385 29.0216 126.563 32.2324C123.79 35.4432 122.404 39.7 122.404 45.0027C122.404 50.3054 123.766 54.5621 126.49 57.7729C129.263 60.9838 133.228 62.5892 138.385 62.5892C140.671 62.5892 142.763 62.3459 144.66 61.8594C146.606 61.3729 148.674 60.6432 150.863 59.6702L151.885 68.5729C147.652 70.5675 143.152 71.5648 138.385 71.5648Z" fill="#FF9B10"/>
<path d="M174.186 71.2729C170.343 71.2729 167.01 70.4216 164.189 68.7189C161.367 67.0162 159.202 64.7297 157.694 61.8594C156.186 58.9892 155.432 55.827 155.432 52.3729C155.432 48.9189 156.186 45.7324 157.694 42.8135C159.202 39.8946 161.367 37.5837 164.189 35.881C167.01 34.1783 170.343 33.327 174.186 33.327C178.029 33.327 181.362 34.1783 184.183 35.881C187.005 37.5837 189.17 39.8946 190.678 42.8135C192.186 45.7324 192.94 48.9189 192.94 52.3729C192.94 55.827 192.186 58.9892 190.678 61.8594C189.17 64.7297 187.005 67.0162 184.183 68.7189C181.362 70.4216 178.029 71.2729 174.186 71.2729ZM174.186 63.8297C177.154 63.8297 179.464 62.7838 181.118 60.6919C182.821 58.6 183.673 55.827 183.673 52.3729C183.673 48.8702 182.821 46.0729 181.118 43.981C179.464 41.8405 177.154 40.7702 174.186 40.7702C171.218 40.7702 168.883 41.8405 167.181 43.981C165.527 46.0729 164.7 48.8702 164.7 52.3729C164.7 55.827 165.527 58.6 167.181 60.6919C168.883 62.7838 171.218 63.8297 174.186 63.8297Z" fill="#FF9B10"/>
<path d="M234.617 71.2729C230.774 71.2729 227.441 70.4216 224.619 68.7189C221.798 67.0162 219.633 64.7297 218.125 61.8594C216.617 58.9892 215.863 55.827 215.863 52.3729C215.863 48.9189 216.617 45.7324 218.125 42.8135C219.633 39.8946 221.798 37.5837 224.619 35.881C227.441 34.1783 230.774 33.327 234.617 33.327C238.46 33.327 241.792 34.1783 244.614 35.881C247.436 37.5837 249.601 39.8946 251.109 42.8135C252.617 45.7324 253.371 48.9189 253.371 52.3729C253.371 55.827 252.617 58.9892 251.109 61.8594C249.601 64.7297 247.436 67.0162 244.614 68.7189C241.792 70.4216 238.46 71.2729 234.617 71.2729ZM234.617 63.8297C237.584 63.8297 239.895 62.7838 241.549 60.6919C243.252 58.6 244.103 55.827 244.103 52.3729C244.103 48.8702 243.252 46.0729 241.549 43.981C239.895 41.8405 237.584 40.7702 234.617 40.7702C231.649 40.7702 229.314 41.8405 227.611 43.981C225.957 46.0729 225.13 48.8702 225.13 52.3729C225.13 55.827 225.957 58.6 227.611 60.6919C229.314 62.7838 231.649 63.8297 234.617 63.8297Z" fill="#FF9B10"/>
<path d="M259.669 34.0567H268.134L268.353 37.9243C269.423 36.7081 270.785 35.6378 272.44 34.7135C274.142 33.7892 275.918 33.327 277.767 33.327C278.35 33.327 278.885 33.3756 279.372 33.4729L278.715 42.3756C277.791 42.1324 276.745 42.0108 275.577 42.0108C274.069 42.0108 272.683 42.3756 271.418 43.1054C270.153 43.7865 269.253 44.6378 268.718 45.6594V70.5432H259.669V34.0567Z" fill="#FF9B10"/>
<path d="M291.21 71.2729C288.193 71.2729 285.664 70.3 283.62 68.354C281.626 66.3594 280.628 63.6838 280.628 60.327C280.628 57.1648 281.772 54.6351 284.058 52.7378C286.345 50.7919 289.045 49.4297 292.158 48.6513C295.272 47.8243 298.264 47.3621 301.134 47.2648C301.037 45.1243 300.477 43.5919 299.456 42.6675C298.483 41.7432 296.853 41.281 294.566 41.281C292.961 41.281 291.38 41.5 289.823 41.9378C288.315 42.3756 286.564 43.081 284.569 44.054L283.766 36.6838C288.193 34.5432 292.62 33.4729 297.047 33.4729C301.328 33.4729 304.588 34.6405 306.826 36.9756C309.112 39.3108 310.255 43.0324 310.255 48.1405V57.9919C310.255 59.8405 310.328 61.1783 310.474 62.0054C310.669 62.7838 310.961 63.2946 311.35 63.5378C311.788 63.7324 312.493 63.8297 313.466 63.8297H314.634L313.831 71.2729H310.547C308.553 71.2729 306.874 70.9081 305.512 70.1783C304.15 69.4 303.104 68.354 302.374 67.0405C301.207 68.354 299.601 69.4 297.558 70.1783C295.564 70.9081 293.447 71.2729 291.21 71.2729ZM295.004 64.3405C295.928 64.3405 296.974 64.1216 298.142 63.6838C299.31 63.1973 300.331 62.5405 301.207 61.7135V53.3946C298.288 53.5405 295.71 54.1729 293.472 55.2919C291.234 56.4108 290.115 57.9675 290.115 59.9621C290.115 61.4702 290.504 62.5892 291.283 63.3189C292.061 64 293.301 64.3405 295.004 64.3405Z" fill="#FF9B10"/>
<path d="M352.948 15.8135V70.5432H344.41L344.264 68.2081C342.854 69.2297 341.37 70.0081 339.813 70.5432C338.305 71.0297 336.505 71.2729 334.413 71.2729C330.862 71.2729 327.797 70.4216 325.218 68.7189C322.689 67.0162 320.767 64.7297 319.454 61.8594C318.14 58.9892 317.483 55.827 317.483 52.3729C317.483 48.9189 318.14 45.7567 319.454 42.8865C320.767 40.0162 322.689 37.7297 325.218 36.027C327.797 34.3243 330.862 33.4729 334.413 33.4729C337.964 33.4729 341.126 34.4459 343.899 36.3919V15.8135H352.948ZM335.727 63.8297C338.597 63.8297 340.737 62.8081 342.148 60.7648C343.608 58.7216 344.337 55.9243 344.337 52.3729C344.337 48.8216 343.608 46.0243 342.148 43.981C340.737 41.9378 338.597 40.9162 335.727 40.9162C332.905 40.9162 330.691 41.9621 329.086 44.054C327.529 46.1459 326.751 48.9189 326.751 52.3729C326.751 55.827 327.529 58.6 329.086 60.6919C330.691 62.7838 332.905 63.8297 335.727 63.8297Z" fill="#FF9B10"/>
<path d="M377.926 71.2729C374.083 71.2729 370.75 70.4216 367.929 68.7189C365.107 67.0162 362.942 64.7297 361.434 61.8594C359.926 58.9892 359.172 55.827 359.172 52.3729C359.172 48.9189 359.926 45.7324 361.434 42.8135C362.942 39.8946 365.107 37.5837 367.929 35.881C370.75 34.1783 374.083 33.327 377.926 33.327C381.769 33.327 385.102 34.1783 387.923 35.881C390.745 37.5837 392.91 39.8946 394.418 42.8135C395.926 45.7324 396.68 48.9189 396.68 52.3729C396.68 55.827 395.926 58.9892 394.418 61.8594C392.91 64.7297 390.745 67.0162 387.923 68.7189C385.102 70.4216 381.769 71.2729 377.926 71.2729ZM377.926 63.8297C380.894 63.8297 383.204 62.7838 384.858 60.6919C386.561 58.6 387.412 55.827 387.412 52.3729C387.412 48.8702 386.561 46.0729 384.858 43.981C383.204 41.8405 380.894 40.7702 377.926 40.7702C374.958 40.7702 372.623 41.8405 370.921 43.981C369.266 46.0729 368.439 48.8702 368.439 52.3729C368.439 55.827 369.266 58.6 370.921 60.6919C372.623 62.7838 374.958 63.8297 377.926 63.8297Z" fill="#FF9B10"/>
<rect x="199.46" y="14.5977" width="9.72973" height="55.9459" fill="#FF9B10"/>
</svg>
